<?xml version="1.0" encoding="UTF-8"?>
<svg id="Layer_2" data-name="Layer 2" xmlns="http://www.w3.org/2000/svg" viewBox="0 0 40 6.89">
  <defs>
    <style>
      .cls-1 {
        fill: #231f20;
      }
    </style>
  </defs>
  <g id="Layer_1-2" data-name="Layer 1">
    <g>
      <path class="cls-1" d="M1.12,6.64c-.42-.17-.79-.41-1.12-.72l.76-.92c.24.22.51.4.8.53.3.13.59.2.88.2.35,0,.61-.07.79-.21.18-.14.27-.32.27-.56,0-.13-.02-.23-.07-.31-.05-.08-.12-.16-.2-.22-.09-.07-.19-.13-.31-.18-.12-.05-.26-.11-.41-.18l-.89-.38c-.23-.1-.45-.22-.65-.38-.2-.16-.37-.35-.5-.58-.13-.23-.2-.51-.2-.83,0-.27.06-.52.17-.76s.27-.44.48-.61c.2-.17.45-.31.73-.4s.59-.15.92-.15c.39,0,.77.07,1.14.22.36.15.68.36.95.63l-.67.83c-.21-.17-.43-.31-.66-.4-.23-.1-.48-.14-.75-.14-.29,0-.53.06-.7.18-.17.12-.26.29-.26.52,0,.11.03.21.09.3.06.08.13.16.22.22.09.07.2.13.33.18.13.06.26.11.4.17l.87.37c.41.17.74.39.98.66s.36.66.36,1.14c0,.27-.06.53-.17.77-.11.25-.27.46-.48.64-.21.18-.47.33-.77.44-.3.11-.64.16-1.03.16-.45,0-.88-.08-1.31-.25Z"/>
      <path class="cls-1" d="M6.74,6.64c-.42-.17-.79-.41-1.12-.72l.76-.92c.24.22.51.4.8.53.3.13.59.2.88.2.35,0,.61-.07.79-.21.18-.14.27-.32.27-.56,0-.13-.02-.23-.07-.31-.05-.08-.12-.16-.2-.22-.09-.07-.19-.13-.31-.18-.12-.05-.26-.11-.41-.18l-.89-.38c-.23-.1-.45-.22-.65-.38-.2-.16-.37-.35-.5-.58-.13-.23-.2-.51-.2-.83,0-.27.06-.52.17-.76s.27-.44.48-.61c.2-.17.45-.31.73-.4s.59-.15.92-.15c.39,0,.77.07,1.14.22.36.15.68.36.95.63l-.67.83c-.21-.17-.43-.31-.66-.4-.23-.1-.48-.14-.75-.14-.29,0-.53.06-.7.18-.17.12-.26.29-.26.52,0,.11.03.21.09.3.06.08.13.16.22.22.09.07.2.13.33.18.13.06.26.11.4.17l.87.37c.41.17.74.39.98.66s.36.66.36,1.14c0,.27-.06.53-.17.77-.11.25-.27.46-.48.64-.21.18-.47.33-.77.44-.3.11-.64.16-1.03.16-.45,0-.88-.08-1.31-.25Z"/>
      <path class="cls-1" d="M13.44,6.67c-.39-.15-.73-.37-1.01-.66-.28-.29-.51-.64-.67-1.07s-.24-.92-.24-1.47.08-1.04.25-1.47c.17-.43.39-.79.68-1.09.29-.3.63-.53,1.01-.68.39-.16.8-.23,1.24-.23.48,0,.89.09,1.23.26.34.17.61.37.83.59l-.71.84c-.16-.16-.34-.29-.54-.39-.2-.11-.45-.16-.76-.16-.28,0-.53.05-.76.16-.23.1-.43.26-.59.45s-.29.44-.39.72c-.09.28-.14.6-.14.96,0,.72.16,1.29.49,1.7.33.41.82.61,1.47.61.16,0,.32-.02.47-.06.15-.04.27-.1.37-.19v-1.31h-1.18v-1.09h2.36v3c-.23.22-.53.41-.9.57-.37.16-.79.23-1.26.23s-.88-.07-1.27-.22Z"/>
      <path class="cls-1" d="M18.88,5.62h.04c.35,0,.64.29.64.64h0c0,.35-.29.64-.64.64h-.04c-.35,0-.64-.29-.64-.64h0c0-.35.29-.64.64-.64Z"/>
      <path class="cls-1" d="M22.66,6.67c-.37-.15-.69-.37-.97-.66s-.49-.64-.65-1.07c-.16-.42-.24-.92-.24-1.47s.08-1.04.25-1.47c.16-.43.39-.79.67-1.09.28-.3.61-.53.98-.68s.77-.23,1.19-.23.81.09,1.14.26c.33.17.6.37.81.6l-.7.84c-.17-.16-.35-.29-.55-.4-.2-.1-.42-.16-.67-.16s-.48.05-.7.16c-.22.1-.4.26-.56.45-.16.2-.28.44-.37.72-.09.28-.13.6-.13.96s.04.68.12.97.2.53.35.73c.15.2.34.35.55.46.21.1.45.16.71.16.29,0,.54-.06.77-.18.22-.12.43-.28.61-.47l.7.83c-.54.65-1.25.98-2.12.98-.42,0-.81-.07-1.18-.22Z"/>
      <path class="cls-1" d="M28.3,6.66c-.36-.16-.68-.39-.94-.69-.26-.3-.47-.67-.61-1.1-.14-.43-.22-.91-.22-1.45s.07-1.02.22-1.45c.14-.42.35-.78.61-1.08.26-.29.58-.52.94-.67.36-.15.77-.23,1.2-.23s.85.08,1.21.23c.36.16.67.38.94.67.26.29.47.65.61,1.07.14.43.22.91.22,1.45s-.07,1.02-.22,1.45c-.14.43-.35.79-.61,1.1-.26.3-.58.53-.94.69-.36.16-.76.24-1.21.24s-.84-.08-1.2-.24ZM30.18,5.58c.2-.11.37-.27.51-.47.14-.2.25-.44.32-.73.07-.29.11-.61.11-.96,0-.72-.14-1.29-.43-1.68-.28-.4-.68-.6-1.19-.6s-.91.2-1.19.6c-.28.4-.43.96-.43,1.68,0,.35.04.67.11.96s.18.53.32.73c.14.2.31.36.51.47.2.11.42.17.67.17s.47-.06.67-.17Z"/>
      <path class="cls-1" d="M36.57,3.23c.07.21.14.42.21.64l.2.65h.05c.07-.22.14-.43.2-.65.06-.22.13-.43.2-.64l1.1-3.11h1.47v6.64h-1.21v-2.77c0-.16,0-.33.01-.52,0-.19.02-.38.04-.57.02-.19.04-.39.05-.57.02-.19.04-.36.05-.52h-.04l-.54,1.56-1.02,2.79h-.76l-1.03-2.79-.53-1.56h-.04c.02.16.04.33.06.52.02.19.04.38.05.57.01.19.03.39.04.57.01.19.02.36.02.52v2.77h-1.19V.13h1.47l1.13,3.11Z"/>
    </g>
  </g>
</svg>