<?xml version="1.0" encoding="UTF-8"?>
<svg id="Layer_2" data-name="Layer 2" xmlns="http://www.w3.org/2000/svg" viewBox="0 0 35.23 33.26">
  <defs>
    <style>
      .cls-1 {
        fill: none;
      }

      .cls-1, .cls-2, .cls-3, .cls-4 {
        stroke: #000;
        stroke-miterlimit: 10;
      }

      .cls-2 {
        stroke-linecap: round;
      }

      .cls-2, .cls-4 {
        fill: #45a3fb;
      }

      .cls-3 {
        fill: #fff;
      }
    </style>
  </defs>
  <g id="Layer_1-2" data-name="Layer 1">
    <g>
      <g>
        <polygon class="cls-3" points="30.52 32.69 .54 32.69 2.45 6.53 28.61 6.53 30.52 32.69"/>
        <path class="cls-3" d="M2.17,10.34l12.68,3.88c.44.14.92.14,1.36,0l12.68-3.88"/>
        <path class="cls-1" d="M10.06,5.98c0-3.02,2.45-5.48,5.48-5.48s5.48,2.45,5.48,5.48"/>
      </g>
      <g>
        <path class="cls-4" d="M21.75,19.39l-10.75,6.75s-2.05,1.92-2.05,6.62h25.78v-13.98h-2.86s-.27,3.27-4.09,3.27c-2.49,0-3.88-1.39-4.54-2.36-.33-.48-.99-.61-1.48-.3Z"/>
        <line class="cls-1" x1="9.21" y1="30.05" x2="34.73" y2="30.05"/>
        <line class="cls-2" x1="15.43" y1="23.36" x2="17.69" y2="26.07"/>
        <line class="cls-2" x1="18.62" y1="21.51" x2="20.88" y2="24.23"/>
      </g>
    </g>
  </g>
</svg>