<?xml version="1.0" encoding="UTF-8"?>
<svg id="Layer_2" data-name="Layer 2" xmlns="http://www.w3.org/2000/svg" viewBox="0 0 13.64 13.7">
  <defs>
    <style>
      .cls-1 {
        fill: #231f20;
      }
    </style>
  </defs>
  <g id="Layer_1-2" data-name="Layer 1">
    <g>
      <path class="cls-1" d="M6.82.97c1.14,0,2.07.93,2.07,2.07s-.93,2.07-2.07,2.07-2.07-.93-2.07-2.07.93-2.07,2.07-2.07M6.82,0c-1.68,0-3.04,1.36-3.04,3.04s1.36,3.04,3.04,3.04,3.04-1.36,3.04-3.04-1.36-3.04-3.04-3.04h0Z"/>
      <path class="cls-1" d="M13.64,13.7h-1.06c0-3.18-2.58-5.76-5.76-5.76S1.06,10.53,1.06,13.7H0c0-3.76,3.06-6.82,6.82-6.82s6.82,3.06,6.82,6.82Z"/>
    </g>
  </g>
</svg>