<?xml version="1.0" encoding="UTF-8"?>
<svg id="Layer_2" data-name="Layer 2" xmlns="http://www.w3.org/2000/svg" viewBox="0 0 31.3 14.39">
  <g id="Layer_1-2" data-name="Layer 1">
    <g>
      <path d="M7.14.49c.69.13,1.28.32,1.77.59s.87.62,1.15,1.05c.27.43.41.94.41,1.55,0,.69-.21,1.31-.62,1.86-.42.55-1.01.93-1.78,1.14v.09c.98.16,1.78.52,2.41,1.06.62.55.94,1.29.94,2.24,0,.68-.15,1.27-.46,1.78-.3.51-.73.93-1.27,1.26-.54.33-1.19.58-1.95.75-.76.17-1.6.25-2.52.25H0V.3h4.86c.83,0,1.59.06,2.28.19ZM7.53,5.57c.61-.41.91-.96.91-1.67,0-.83-.32-1.41-.95-1.74-.63-.33-1.6-.49-2.91-.49h-2.52v4.51h2.43c1.41,0,2.42-.2,3.03-.61ZM8.23,12.08c.77-.43,1.15-1.12,1.15-2.07,0-.87-.38-1.5-1.15-1.9-.77-.4-1.87-.59-3.31-.59h-2.85v5.21h2.85c1.44,0,2.54-.22,3.31-.65Z"/>
      <path d="M16.11,3.89v10.24h-2.03V3.89h2.03ZM14.1,0h2.03v1.77h-2.03V0Z"/>
      <path d="M19.25,5.28v-1.4h8.24v.92l-6.37,7.92h6.6v1.4h-9.16v-.92l6.37-7.92h-5.68Z"/>
      <path d="M31.3,14.39h-2.03v-1.77h2.03v1.77Z"/>
    </g>
  </g>
</svg>