<?xml version="1.0" encoding="UTF-8"?>
<svg id="Layer_2" data-name="Layer 2" xmlns="http://www.w3.org/2000/svg" viewBox="0 0 17.31 14.76">
  <defs>
    <style>
      .cls-1 {
        fill: #231f20;
      }
    </style>
  </defs>
  <g id="Layer_1-2" data-name="Layer 1">
    <g>
      <path class="cls-1" d="M14.96,9.75H5.22l-.87-5.28-1.34-3.42H.53c-.29,0-.53-.24-.53-.53s.24-.53.53-.53h3.21l1.49,3.8h11.59l-1.85,5.95ZM6.12,8.7h8.07l1.19-3.84H5.48l.63,3.84Z"/>
      <path class="cls-1" d="M16.1,4.86c-.08,0-.16-.02-.23-.06-.26-.13-.37-.45-.24-.71l.69-1.39c.13-.26.45-.37.71-.24.26.13.37.45.24.71l-.69,1.39c-.09.19-.28.29-.47.29Z"/>
      <path class="cls-1" d="M6.65,14.76c-1.11,0-2.01-.9-2.01-2.01s.9-2.01,2.01-2.01,2.01.9,2.01,2.01-.9,2.01-2.01,2.01ZM6.65,11.79c-.53,0-.96.43-.96.96s.43.96.96.96.96-.43.96-.96-.43-.96-.96-.96Z"/>
      <path class="cls-1" d="M14.37,14.76c-1.11,0-2.01-.9-2.01-2.01s.9-2.01,2.01-2.01,2.01.9,2.01,2.01-.9,2.01-2.01,2.01ZM14.37,11.79c-.53,0-.96.43-.96.96s.43.96.96.96.96-.43.96-.96-.43-.96-.96-.96Z"/>
    </g>
  </g>
</svg>