<?xml version="1.0" encoding="UTF-8"?>
<svg id="Layer_2" data-name="Layer 2" xmlns="http://www.w3.org/2000/svg" viewBox="0 0 40.06 36.25">
  <defs>
    <style>
      .cls-1 {
        fill: none;
      }

      .cls-1, .cls-2, .cls-3 {
        stroke: #000;
        stroke-miterlimit: 10;
      }

      .cls-2 {
        fill: #fff;
      }

      .cls-3 {
        fill: #3ad5ff;
      }
    </style>
  </defs>
  <g id="Layer_1-2" data-name="Layer 1">
    <g>
      <polygon class="cls-2" points="30.52 32.69 .54 32.69 2.45 6.53 28.61 6.53 30.52 32.69"/>
      <path class="cls-2" d="M2.17,10.34l12.68,3.88c.44.14.92.14,1.36,0l12.68-3.88"/>
      <path class="cls-1" d="M10.06,5.98c0-3.02,2.45-5.48,5.48-5.48s5.48,2.45,5.48,5.48"/>
    </g>
    <g>
      <path class="cls-3" d="M39.46,23.15h-21.15c-.07,0-.12-.08-.08-.14l3.52-5.31h14.25l3.52,5.31c.04.06,0,.14-.08.14Z"/>
      <path class="cls-3" d="M18.4,23.24l10.49,12.23,10.49-12.23s0-.09-.04-.09h-20.9s-.07.06-.04.09Z"/>
      <polyline class="cls-1" points="25.5 17.7 23.81 23.15 28.89 35.48"/>
      <polyline class="cls-1" points="32.28 17.7 33.97 23.15 28.89 35.48"/>
    </g>
  </g>
</svg>