<?xml version="1.0" encoding="UTF-8"?>
<svg id="Layer_2" data-name="Layer 2" xmlns="http://www.w3.org/2000/svg" viewBox="0 0 42.49 25.69">
  <defs>
    <style>
      .cls-1 {
        fill: none;
        stroke: #000;
        stroke-miterlimit: 10;
      }

      .cls-2 {
        fill: #348ca8;
      }
    </style>
  </defs>
  <g id="Layer_1-2" data-name="Layer 1">
    <g>
      <path class="cls-2" d="M41.32,7.31c-2.52-4.88-7.03-2.82-7.9-2.39-.86.44-7.16,3.91-7.16,3.91L12.37.58l-4.55,2.61,9.11,11.06-5.86,2.82-5.64-3.25-4.56,1.74,8.9,9.54,11.02-4.5h.01s0,4.06,0,4.06h5.81l3.63-7.93,8.17-3.34s5.2-1.65,2.91-6.08Z"/>
      <g>
        <path class="cls-1" d="M.87,15.55l8.9,9.55,28.64-11.72s5.61-2.75,2.78-6.87-6.91-2.03-7.78-1.59-7.16,3.91-7.16,3.91L12.37.58l-4.56,2.6,9.11,11.07-5.86,2.82-4.58-2.64c-.67-.39-1.49-.45-2.22-.18l-3.41,1.3Z"/>
        <polyline class="cls-1" points="20.79 20.59 20.79 25.1 26.6 25.1 30.45 16.69"/>
      </g>
    </g>
  </g>
</svg>