<?xml version="1.0" encoding="UTF-8"?>
<svg id="Layer_2" data-name="Layer 2" xmlns="http://www.w3.org/2000/svg" viewBox="0 0 43.67 43.67">
  <defs>
    <style>
      .cls-1 {
        fill: #427dfb;
      }

      .cls-2 {
        fill: #fff;
        stroke: #000;
        stroke-miterlimit: 10;
        stroke-width: 1.02px;
      }
    </style>
  </defs>
  <g id="Layer_1-2" data-name="Layer 1">
    <g>
      <circle class="cls-2" cx="21.84" cy="21.84" r="21.33"/>
      <g>
        <path class="cls-1" d="M21.62,34.64c-5.57,0-8.64-3.51-8.64-9.88v-13.43h3.94v13.5c0,4.2,1.7,6.52,4.8,6.52,3.34,0,5.04-2.19,5.04-6.52v-13.5h3.94v13.3c0,6.36-3.31,10.01-9.08,10.01Z"/>
        <path d="M30.21,11.82v12.81c0,6.75-3.67,9.52-8.59,9.52-4.65,0-8.15-2.58-8.15-9.39v-12.94h2.96v13.01c0,4.92,2.26,7.01,5.29,7.01,3.37,0,5.53-2.15,5.53-7.01v-13.01h2.96M31.19,10.84h-4.92v13.98c0,4-1.53,6.03-4.55,6.03-3.56,0-4.31-3.28-4.31-6.03v-13.98h-4.92v13.92c0,9.02,5.72,10.37,9.13,10.37,6.08,0,9.57-3.83,9.57-10.5v-13.79h0Z"/>
      </g>
    </g>
  </g>
</svg>