<?xml version="1.0" encoding="UTF-8"?>
<svg id="Layer_2" data-name="Layer 2" xmlns="http://www.w3.org/2000/svg" viewBox="0 0 45.13 28.32">
  <defs>
    <style>
      .cls-1 {
        stroke-width: 1.03px;
      }

      .cls-1, .cls-2, .cls-3, .cls-4, .cls-5, .cls-6, .cls-7, .cls-8 {
        stroke: #000;
        stroke-miterlimit: 10;
      }

      .cls-1, .cls-2, .cls-6 {
        fill: #ffd040;
      }

      .cls-2 {
        stroke-width: .75px;
      }

      .cls-3 {
        stroke-linecap: round;
      }

      .cls-3, .cls-5 {
        fill: none;
      }

      .cls-3, .cls-5, .cls-6 {
        stroke-width: .78px;
      }

      .cls-4 {
        stroke-width: .79px;
      }

      .cls-4, .cls-7 {
        fill: #fff;
      }

      .cls-7 {
        stroke-width: .68px;
      }

      .cls-8 {
        fill: #242424;
      }

      .cls-9 {
        fill: #373738;
      }
    </style>
  </defs>
  <g id="Layer_1-2" data-name="Layer 1">
    <g>
      <circle cx="14.12" cy="24.24" r="4.08"/>
      <circle cx="37.76" cy="24.24" r="4.08"/>
      <path class="cls-8" d="M.52,20.51c0,2.2.84,3.7,3.43,3.73,0,0,37.72,0,37.72,0,2.16.06,2.9-1.4,2.9-3.73H.52Z"/>
      <path class="cls-1" d="M33.15,3.14v17.38H.52V3.06C.52,1.66,1.66.52,3.06.52h27.64c.06,0,.12,0,.17.01.34.04.66.14.95.29.21.12.41.27.58.44.18.18.33.4.46.63.16.3.26.63.28.98.01.09.01.18.01.27Z"/>
      <path class="cls-1" d="M33.15,3.14v17.38h-9.84V3.14c0-1.44-1.1-2.62-2.45-2.62h9.84c.06,0,.12,0,.17.01.34.02.66.12.95.29.21.11.41.26.58.44.18.18.33.4.46.63.15.3.24.63.28.98.01.09.01.18.01.27Z"/>
      <g>
        <circle cx="7.38" cy="24.24" r="4.08"/>
        <circle class="cls-9" cx="7.38" cy="24.24" r="2.04"/>
      </g>
      <g>
        <circle cx="31.27" cy="24.24" r="4.08"/>
        <circle class="cls-9" cx="31.27" cy="24.24" r="2.04"/>
      </g>
      <g>
        <path class="cls-4" d="M42.29,7.12v5.22c0,.4-.46.72-1.04.72h-13.46c-.58,0-1.04-.32-1.04-.72v-6.73c0-.39.46-.72,1.04-.72h11.27c1.78,0,3.23,1,3.23,2.23Z"/>
        <path class="cls-7" d="M33.91,6.77v5.67c0,.34-.41.61-.92.61h-5.14c-.61,0-1.09-.32-1.09-.72v-6.73c0-.39.49-.72,1.09-.72h3.2c1.58,0,2.87.85,2.87,1.88Z"/>
      </g>
      <g>
        <path class="cls-2" d="M44.76,16.43v3.01c0,.59-.49,1.07-1.07,1.07h-8.78c.49,0,.89-.4.89-.9v-3.73c0-1.38-1-2.54-2.32-2.78.1-.03.2-.05.31-.05h7.58c1.86,0,3.39,1.52,3.39,3.38Z"/>
        <path class="cls-6" d="M35.8,15.88v3.73c0,.5-.43.9-.95.9h-7.13c-.52,0-.96-.4-.96-.9v-5.66c0-.5.44-.9.96-.9h5.06c.18,0,.36.02.55.05,1.41.24,2.49,1.4,2.49,2.78Z"/>
      </g>
      <line class="cls-5" x1="35.8" y1="16.78" x2="44.76" y2="16.78"/>
      <line class="cls-5" x1="37.09" y1="18.64" x2="38.44" y2="18.64"/>
      <line class="cls-3" x1="27.89" y1="14.83" x2="29.24" y2="14.83"/>
      <line class="cls-5" x1="41.92" y1="18.64" x2="43.27" y2="18.64"/>
      <line class="cls-3" x1="36.59" y1="8.97" x2="36.59" y2="11.33"/>
      <line class="cls-3" x1="40.28" y1="8.97" x2="40.28" y2="11.33"/>
    </g>
  </g>
</svg>