<?xml version="1.0" encoding="UTF-8"?>
<svg id="Layer_2" data-name="Layer 2" xmlns="http://www.w3.org/2000/svg" viewBox="0 0 15.31 13.7">
  <defs>
    <style>
      .cls-1 {
        fill: #231f20;
      }
    </style>
  </defs>
  <g id="Layer_1-2" data-name="Layer 1">
    <path class="cls-1" d="M11.17.83c1.83,0,3.32,1.49,3.32,3.32,0,.82-.3,1.6-.84,2.21l-.21.24h0s-5.78,5.93-5.78,5.93L1.9,6.61h0s-.22-.24-.22-.24c-.55-.61-.86-1.4-.86-2.22C.83,2.32,2.32.83,4.16.83c.75,0,1.45.24,2.06.73.28.21.54.49.76.82l.71,1.09.69-1.11c.2-.32.45-.59.75-.83.59-.46,1.3-.71,2.05-.71M11.17,0c-.96,0-1.85.33-2.56.89-.37.28-.69.63-.94,1.04-.26-.4-.59-.77-.96-1.04-.7-.56-1.59-.89-2.55-.89C1.86,0,0,1.86,0,4.15c0,1.07.4,2.05,1.07,2.78,0,.01.01.03.02.04l6.56,6.73,6.57-6.73s.03-.04.03-.07c.66-.73,1.05-1.7,1.05-2.76,0-2.29-1.86-4.15-4.15-4.15h0Z"/>
  </g>
</svg>