<?xml version="1.0" encoding="UTF-8"?>
<svg id="Layer_2" data-name="Layer 2" xmlns="http://www.w3.org/2000/svg" viewBox="0 0 36.13 34.16">
  <defs>
    <style>
      .cls-1 {
        fill: #fff;
      }

      .cls-1, .cls-2 {
        stroke: #000;
        stroke-miterlimit: 10;
      }

      .cls-2 {
        fill: #fa6c3a;
      }
    </style>
  </defs>
  <g id="Layer_1-2" data-name="Layer 1">
    <g>
      <g>
        <rect class="cls-2" x=".5" y="6.09" width="13.59" height="6.96" rx=".97" ry=".97"/>
        <path class="cls-1" d="M23.43,30.22c-.09.19-.18.39-.29.58-.58,1.05-1.43,1.74-2.33,2.19-2.02,1-4.42.84-6.4-.23l-8.42-4.55-2.59-1.4c-1.79-.96-2.9-2.82-2.9-4.85v-10.29h13.59v4.11c0,1.68.92,3.23,2.4,4.03l3.82,2.07c2.98,1.61,4.45,5.23,3.12,8.34Z"/>
        <path class="cls-2" d="M7.3,24.04c0,1.61-.49,3.06-1.31,4.17l-2.59-1.4c-1.79-.96-2.9-2.82-2.9-4.85v-3.88c.51-.21,1.06-.32,1.63-.32,2.85,0,5.17,2.81,5.17,6.28Z"/>
      </g>
      <g>
        <rect class="cls-2" x="12.21" y=".5" width="13.59" height="6.96" rx=".97" ry=".97"/>
        <path class="cls-1" d="M35.14,24.64c-.09.19-.18.39-.29.58-.58,1.05-1.43,1.74-2.33,2.19-2.02,1-4.42.84-6.4-.23l-8.42-4.55-2.59-1.4c-1.79-.96-2.9-2.82-2.9-4.85V6.09h13.59v4.11c0,1.68.92,3.23,2.4,4.03l3.82,2.07c2.98,1.61,4.45,5.23,3.12,8.34Z"/>
        <path class="cls-2" d="M19.01,18.46c0,1.61-.49,3.06-1.31,4.17l-2.59-1.4c-1.79-.96-2.9-2.82-2.9-4.85v-3.88c.51-.21,1.06-.32,1.63-.32,2.85,0,5.17,2.81,5.17,6.28Z"/>
      </g>
    </g>
  </g>
</svg>